<svg xmlns="http://www.w3.org/2000/svg" viewBox="0 0 720 720">
<rect width="720" height="720" fill="#231408"/>
<g transform="skewX(-8) translate(52 0)">
  <g transform="translate(150.945 485.71500000000003)"><path d="M69.10 2.27L69.10 2.27Q42.06 2.27 25.56-14.58Q9.06-31.44 9.06-61.74L9.06-61.74L9.06-176.72Q9.06-212.97 23.44-232.23Q37.81-251.48 70.23-251.48L70.23-251.48Q87.93-251.48 101.74-244.97Q115.55-238.46 123.48-225.50Q131.41-212.54 131.41-192.86L131.41-192.86L131.41-149.81L81.85-149.81L81.85-186.63Q81.85-197.82 79.01-201.71Q76.18-205.61 70.23-205.61L70.23-205.61Q63.30-205.61 60.89-200.58Q58.48-195.55 58.48-187.20L58.48-187.20L58.48-62.45Q58.48-52.11 61.53-47.86Q64.57-43.61 70.23-43.61L70.23-43.61Q76.61-43.61 79.23-48.85Q81.85-54.09 81.85-62.45L81.85-62.45L81.85-107.33L131.97-107.33L131.97-60.18Q131.97-27.33 115.41-12.53Q98.84 2.27 69.10 2.27Z" fill="#ffffff"/></g>
  <path d="M 310.405 495.71500000000003 L 310.405 400.67446 L 320.965 400.67446 L 320.965 339.57696999999996 L 331.525 339.57696999999996 L 331.525 285.26809000000003 L 342.085 285.26809000000003 L 342.085 224.17059999999998 L 353.60499999999996 197.01615999999996 L 358.405 156.28449999999998 L 363.205 197.01615999999996 L 374.72499999999997 224.17059999999998 L 374.72499999999997 285.26809000000003 L 385.28499999999997 285.26809000000003 L 385.28499999999997 339.57696999999996 L 395.84499999999997 339.57696999999996 L 395.84499999999997 400.67446 L 406.405 400.67446 L 406.405 495.71500000000003 Z" fill="#E9620D"/>
  <g transform="translate(428.405 485.71500000000003)"><path d="M62.45 2.27L62.45 2.27Q9.06 2.27 9.06-74.20L9.06-74.20L9.06-181.67Q9.06-251.48 70.23-251.48L70.23-251.48Q95.44-251.48 108.89-241.36Q122.34-231.24 127.44-211.84Q132.54-192.44 132.54-164.54L132.54-164.54L83.83-164.54L83.83-186.63Q83.83-194.70 81.63-200.15Q79.44-205.61 72.50-205.61L72.50-205.61Q63.86-205.61 61.10-199.80Q58.34-193.99 58.34-187.06L58.34-187.06L58.34-66.27Q58.34-56.22 60.96-49.91Q63.58-43.61 71.23-43.61L71.23-43.61Q79.16-43.61 81.77-49.91Q84.39-56.22 84.39-66.55L84.39-66.55L84.39-102.09L71.08-102.09L71.08-145.14L131.97-145.14L131.97 0L112.01 0L103.51-20.96Q90.48 2.27 62.45 2.27Z" fill="#ffffff"/></g>
</g>
</svg>
